<?xml version="1.0" encoding="UTF-8" standalone="no"?>
<!DOCTYPE svg PUBLIC "-//W3C//DTD SVG 1.1//EN"
 "http://www.w3.org/Graphics/SVG/1.1/DTD/svg11.dtd">
<!-- Generated by graphviz version 2.38.0 (20140413.2041)
 -->
<!-- Title: G Pages: 1 -->
<svg width="289pt" height="311pt"
 viewBox="0.00 0.00 289.22 311.00" xmlns="http://www.w3.org/2000/svg" xmlns:xlink="http://www.w3.org/1999/xlink">
<g id="graph0" class="graph" transform="scale(1 1) rotate(0) translate(4 307)">
<title>G</title>
<polygon fill="white" stroke="none" points="-4,4 -4,-307 285.224,-307 285.224,4 -4,4"/>
<g id="clust1" class="cluster"><title>cluster_Global</title>
<path fill="none" stroke="gray" d="M20,-8C20,-8 261.224,-8 261.224,-8 267.224,-8 273.224,-14 273.224,-20 273.224,-20 273.224,-283 273.224,-283 273.224,-289 267.224,-295 261.224,-295 261.224,-295 20,-295 20,-295 14,-295 8,-289 8,-283 8,-283 8,-20 8,-20 8,-14 14,-8 20,-8"/>
<text text-anchor="middle" x="140.612" y="-282.2" font-family="Times,serif" font-size="11.00" fill="gray">Global</text>
</g>
<!-- \\File -->
<g id="node1" class="node"><title>\\File</title>
<polygon fill="none" stroke="black" points="234.716,-268 180.716,-268 180.716,-232 234.716,-232 234.716,-268"/>
<text text-anchor="middle" x="207.716" y="-246.7" font-family="Courier,monospace" font-size="11.00">File</text>
</g>
<!-- \\Queue -->
<g id="node2" class="node"><title>\\Queue</title>
<polygon fill="none" stroke="black" points="234.716,-214 180.716,-214 180.716,-178 234.716,-178 234.716,-214"/>
<text text-anchor="middle" x="207.716" y="-192.7" font-family="Courier,monospace" font-size="11.00">Queue</text>
</g>
<!-- \\TouchCommand -->
<g id="node3" class="node"><title>\\TouchCommand</title>
<polygon fill="none" stroke="black" points="255.429,-160 160.002,-160 160.002,-124 255.429,-124 255.429,-160"/>
<text text-anchor="middle" x="207.716" y="-138.7" font-family="Courier,monospace" font-size="11.00">TouchCommand</text>
</g>
<!-- \\Command -->
<g id="node6" class="node"><title>\\Command</title>
<polygon fill="none" stroke="black" points="78.3116,-106 15.8959,-106 15.8959,-70 78.3116,-70 78.3116,-106"/>
<text text-anchor="middle" x="47.1038" y="-84.7" font-family="Courier,monospace" font-size="11.00">Command</text>
</g>
<!-- \\TouchCommand&#45;&gt;\\Command -->
<g id="edge1" class="edge"><title>\\TouchCommand&#45;&gt;\\Command</title>
<path fill="none" stroke="black" stroke-dasharray="1,5" d="M159.985,-126.09C137.163,-118.32 109.984,-109.067 88.1298,-101.627"/>
<polygon fill="none" stroke="black" points="89.0925,-98.2575 78.498,-98.3478 86.8364,-104.884 89.0925,-98.2575"/>
</g>
<!-- \\CopyCommand -->
<g id="node4" class="node"><title>\\CopyCommand</title>
<polygon fill="none" stroke="black" points="251.828,-106 163.603,-106 163.603,-70 251.828,-70 251.828,-106"/>
<text text-anchor="middle" x="207.716" y="-84.7" font-family="Courier,monospace" font-size="11.00">CopyCommand</text>
</g>
<!-- \\CopyCommand&#45;&gt;\\Command -->
<g id="edge2" class="edge"><title>\\CopyCommand&#45;&gt;\\Command</title>
<path fill="none" stroke="black" stroke-dasharray="1,5" d="M163.374,-88C139.989,-88 111.311,-88 88.41,-88"/>
<polygon fill="none" stroke="black" points="88.3342,-84.5001 78.3342,-88 88.3341,-91.5001 88.3342,-84.5001"/>
</g>
<!-- \\CompressCommand -->
<g id="node5" class="node"><title>\\CompressCommand</title>
<polygon fill="none" stroke="black" points="265.232,-52 150.199,-52 150.199,-16 265.232,-16 265.232,-52"/>
<text text-anchor="middle" x="207.716" y="-30.7" font-family="Courier,monospace" font-size="11.00">CompressCommand</text>
</g>
<!-- \\CompressCommand&#45;&gt;\\Command -->
<g id="edge3" class="edge"><title>\\CompressCommand&#45;&gt;\\Command</title>
<path fill="none" stroke="black" stroke-dasharray="1,5" d="M153.459,-52.1314C132.056,-59.4182 107.805,-67.6744 87.97,-74.4274"/>
<polygon fill="none" stroke="black" points="86.6682,-71.1732 78.3298,-77.7094 88.9242,-77.7997 86.6682,-71.1732"/>
</g>
</g>
</svg>
