<?xml version="1.0" encoding="UTF-8" standalone="no"?>
<!DOCTYPE svg PUBLIC "-//W3C//DTD SVG 1.1//EN"
 "http://www.w3.org/Graphics/SVG/1.1/DTD/svg11.dtd">
<!-- Generated by graphviz version 2.38.0 (20140413.2041)
 -->
<!-- Title: G Pages: 1 -->
<svg width="168pt" height="851pt"
 viewBox="0.00 0.00 168.22 851.00" xmlns="http://www.w3.org/2000/svg" xmlns:xlink="http://www.w3.org/1999/xlink">
<g id="graph0" class="graph" transform="scale(1 1) rotate(0) translate(4 847)">
<title>G</title>
<polygon fill="white" stroke="none" points="-4,4 -4,-847 164.218,-847 164.218,4 -4,4"/>
<g id="clust1" class="cluster"><title>cluster_Global</title>
<path fill="none" stroke="gray" d="M20,-8C20,-8 140.218,-8 140.218,-8 146.218,-8 152.218,-14 152.218,-20 152.218,-20 152.218,-823 152.218,-823 152.218,-829 146.218,-835 140.218,-835 140.218,-835 20,-835 20,-835 14,-835 8,-829 8,-823 8,-823 8,-20 8,-20 8,-14 14,-8 20,-8"/>
<text text-anchor="middle" x="80.1091" y="-822.2" font-family="Times,serif" font-size="11.00" fill="gray">Global</text>
</g>
<!-- \\Amplifier -->
<g id="node1" class="node"><title>\\Amplifier</title>
<polygon fill="none" stroke="black" points="118.02,-808 42.1983,-808 42.1983,-772 118.02,-772 118.02,-808"/>
<text text-anchor="middle" x="80.1091" y="-786.7" font-family="Courier,monospace" font-size="11.00">Amplifier</text>
</g>
<!-- \\CdPlayer -->
<g id="node2" class="node"><title>\\CdPlayer</title>
<polygon fill="none" stroke="black" points="114.418,-754 45.8003,-754 45.8003,-718 114.418,-718 114.418,-754"/>
<text text-anchor="middle" x="80.1091" y="-732.7" font-family="Courier,monospace" font-size="11.00">CdPlayer</text>
</g>
<!-- \\DvdPlayer -->
<g id="node3" class="node"><title>\\DvdPlayer</title>
<polygon fill="none" stroke="black" points="118.02,-700 42.1983,-700 42.1983,-664 118.02,-664 118.02,-700"/>
<text text-anchor="middle" x="80.1091" y="-678.7" font-family="Courier,monospace" font-size="11.00">DvdPlayer</text>
</g>
<!-- \\HomeTheaterFacade -->
<g id="node4" class="node"><title>\\HomeTheaterFacade</title>
<polygon fill="none" stroke="black" points="144.328,-646 15.8907,-646 15.8907,-610 144.328,-610 144.328,-646"/>
<text text-anchor="middle" x="80.1091" y="-624.7" font-family="Courier,monospace" font-size="11.00">HomeTheaterFacade</text>
</g>
<!-- \\PopcornPopper -->
<g id="node5" class="node"><title>\\PopcornPopper</title>
<polygon fill="none" stroke="black" points="130.923,-592 29.295,-592 29.295,-556 130.923,-556 130.923,-592"/>
<text text-anchor="middle" x="80.1091" y="-570.7" font-family="Courier,monospace" font-size="11.00">PopcornPopper</text>
</g>
<!-- \\Projector -->
<g id="node6" class="node"><title>\\Projector</title>
<polygon fill="none" stroke="black" points="118.02,-538 42.1983,-538 42.1983,-502 118.02,-502 118.02,-538"/>
<text text-anchor="middle" x="80.1091" y="-516.7" font-family="Courier,monospace" font-size="11.00">Projector</text>
</g>
<!-- \\Screen -->
<g id="node7" class="node"><title>\\Screen</title>
<polygon fill="none" stroke="black" points="107.717,-484 52.5013,-484 52.5013,-448 107.717,-448 107.717,-484"/>
<text text-anchor="middle" x="80.1091" y="-462.7" font-family="Courier,monospace" font-size="11.00">Screen</text>
</g>
<!-- \\TheaterLights -->
<g id="node8" class="node"><title>\\TheaterLights</title>
<polygon fill="none" stroke="black" points="130.923,-430 29.295,-430 29.295,-394 130.923,-394 130.923,-430"/>
<text text-anchor="middle" x="80.1091" y="-408.7" font-family="Courier,monospace" font-size="11.00">TheaterLights</text>
</g>
<!-- \\Tuner -->
<g id="node9" class="node"><title>\\Tuner</title>
<polygon fill="none" stroke="black" points="107.109,-376 53.1091,-376 53.1091,-340 107.109,-340 107.109,-376"/>
<text text-anchor="middle" x="80.1091" y="-354.7" font-family="Courier,monospace" font-size="11.00">Tuner</text>
</g>
<!-- \\Item -->
<g id="node10" class="node"><title>\\Item</title>
<polygon fill="none" stroke="black" points="107.109,-322 53.1091,-322 53.1091,-286 107.109,-286 107.109,-322"/>
<text text-anchor="middle" x="80.1091" y="-300.7" font-family="Courier,monospace" font-size="11.00">Item</text>
</g>
<!-- \\ItemDao -->
<g id="node11" class="node"><title>\\ItemDao</title>
<polygon fill="none" stroke="black" points="111.317,-268 48.9013,-268 48.9013,-232 111.317,-232 111.317,-268"/>
<text text-anchor="middle" x="80.1091" y="-246.7" font-family="Courier,monospace" font-size="11.00">ItemDao</text>
</g>
<!-- \\Order -->
<g id="node12" class="node"><title>\\Order</title>
<polygon fill="none" stroke="black" points="107.109,-214 53.1091,-214 53.1091,-178 107.109,-178 107.109,-214"/>
<text text-anchor="middle" x="80.1091" y="-192.7" font-family="Courier,monospace" font-size="11.00">Order</text>
</g>
<!-- \\OrderDao -->
<g id="node13" class="node"><title>\\OrderDao</title>
<polygon fill="none" stroke="black" points="114.418,-160 45.8003,-160 45.8003,-124 114.418,-124 114.418,-160"/>
<text text-anchor="middle" x="80.1091" y="-138.7" font-family="Courier,monospace" font-size="11.00">OrderDao</text>
</g>
<!-- \\OrderItem -->
<g id="node14" class="node"><title>\\OrderItem</title>
<polygon fill="none" stroke="black" points="118.02,-106 42.1983,-106 42.1983,-70 118.02,-70 118.02,-106"/>
<text text-anchor="middle" x="80.1091" y="-84.7" font-family="Courier,monospace" font-size="11.00">OrderItem</text>
</g>
<!-- \\OrderManager -->
<g id="node15" class="node"><title>\\OrderManager</title>
<polygon fill="none" stroke="black" points="127.822,-52 32.396,-52 32.396,-16 127.822,-16 127.822,-52"/>
<text text-anchor="middle" x="80.1091" y="-30.7" font-family="Courier,monospace" font-size="11.00">OrderManager</text>
</g>
</g>
</svg>
